<svg width="36" height="36" viewBox="0 0 36 36" fill="none" xmlns="http://www.w3.org/2000/svg">
<path d="M22.5388 15.9011C19.3923 12.4031 19.3923 8.20896 19.3923 2.26404C9.59775 6.11013 12.0481 16.6008 11.6966 20.0953C9.24971 18 8.5501 13.1027 8.5501 13.1027C5.75518 14.5019 4.35596 18 4.35596 20.7949C4.50713 28.0125 10.4239 33.7746 17.6415 33.7324C24.8134 33.8976 30.7618 28.2164 30.9235 21.048C30.927 20.9636 30.927 20.8793 30.927 20.7949C30.927 16.5972 27.7806 14.5019 27.7806 8.90505C24.5849 9.68201 22.3876 12.614 22.5388 15.9011Z" fill="url(#paint0_linear_8_31)"/>
<path d="M17.2899 19.3958C21.8356 21.143 20.7879 26.0403 20.7879 27.436C21.5157 26.5219 21.9938 25.4391 22.1872 24.2895C23.2946 25.1086 23.945 26.4094 23.9344 27.7875C23.9344 31.0711 21.2731 33.7325 17.9895 33.7325C14.7059 33.7325 12.0481 31.0711 12.0481 27.7911C12.3961 24.6411 17.2899 22.1942 17.2899 19.3958Z" fill="#FFAE34"/>
<defs>
<linearGradient id="paint0_linear_8_31" x1="17.6415" y1="2.26404" x2="17.6415" y2="33.7359" gradientUnits="userSpaceOnUse">
<stop stop-color="#EC5B1D"/>
<stop offset="1" stop-color="#DD1F20"/>
</linearGradient>
</defs>
</svg>